<svg xmlns="http://www.w3.org/2000/svg" viewBox="0 0 48 48" fill="none">
  <circle cx="24" cy="24" r="22" fill="#2D5016"/>
  <path d="M24 38 L24 20" stroke="#FAFAF5" stroke-width="2.5" stroke-linecap="round"/>
  <path d="M24 28 C20 32, 14 36, 10 38" stroke="#FAFAF5" stroke-width="1.5" stroke-linecap="round" fill="none" opacity="0.6"/>
  <path d="M24 28 C28 32, 34 36, 38 38" stroke="#FAFAF5" stroke-width="1.5" stroke-linecap="round" fill="none" opacity="0.6"/>
  <path d="M24 22 C20 16, 14 12, 12 8 C16 10, 20 14, 24 20" fill="#8BC34A" opacity="0.9"/>
  <path d="M24 22 C28 16, 34 12, 36 8 C32 10, 28 14, 24 20" fill="#66BB6A" opacity="0.8"/>
  <path d="M24 20 C22 12, 22 8, 24 4 C26 8, 26 12, 24 20" fill="#A5D6A7" opacity="0.85"/>
</svg>