<svg xmlns="http://www.w3.org/2000/svg" viewBox="0 0 120 120" fill="none">
  <!-- Circular badge -->
  <circle cx="60" cy="60" r="56" stroke="#2D5016" stroke-width="2.5" fill="#FAFAF5"/>
  <circle cx="60" cy="60" r="50" stroke="#2D5016" stroke-width="0.8" fill="none"/>
  
  <!-- Soil layers at bottom -->
  <path d="M25 72 C35 69, 45 74, 60 70 C75 66, 85 72, 95 69" stroke="#8B6914" stroke-width="1.2" fill="none" opacity="0.5"/>
  <path d="M25 78 C40 75, 50 80, 60 76 C70 72, 85 78, 95 75" stroke="#8B6914" stroke-width="1" fill="none" opacity="0.35"/>
  <path d="M25 84 C38 81, 52 86, 60 82 C68 78, 82 84, 95 81" stroke="#8B6914" stroke-width="0.8" fill="none" opacity="0.2"/>

  <!-- Main tree/plant trunk -->
  <path d="M60 90 L60 52" stroke="#2D5016" stroke-width="2.8" stroke-linecap="round"/>
  
  <!-- Root system (below soil) -->
  <path d="M60 78 C52 82, 42 88, 36 92" stroke="#5C3A0A" stroke-width="1.5" stroke-linecap="round" fill="none" opacity="0.6"/>
  <path d="M60 78 C68 82, 78 88, 84 92" stroke="#5C3A0A" stroke-width="1.5" stroke-linecap="round" fill="none" opacity="0.6"/>
  <path d="M60 82 C55 86, 48 90, 44 95" stroke="#5C3A0A" stroke-width="1" stroke-linecap="round" fill="none" opacity="0.4"/>
  <path d="M60 82 C65 86, 72 90, 76 95" stroke="#5C3A0A" stroke-width="1" stroke-linecap="round" fill="none" opacity="0.4"/>
  
  <!-- Canopy / leaf clusters -->
  <ellipse cx="60" cy="42" rx="22" ry="16" fill="#2D5016" opacity="0.15"/>
  
  <!-- Individual leaves -->
  <path d="M60 50 C54 44, 42 38, 38 30 C42 32, 54 36, 60 44" fill="#2D5016" opacity="0.85"/>
  <path d="M60 50 C66 44, 78 38, 82 30 C78 32, 66 36, 60 44" fill="#3A6B1E" opacity="0.75"/>
  <path d="M60 48 C56 40, 46 32, 44 24 C48 28, 56 34, 60 42" fill="#3A6B1E" opacity="0.65"/>
  <path d="M60 48 C64 40, 74 32, 76 24 C72 28, 64 34, 60 42" fill="#2D5016" opacity="0.7"/>
  <path d="M58 46 C52 36, 48 28, 50 20 C52 26, 56 34, 58 42" fill="#4A8C2A" opacity="0.6"/>
  <path d="M62 46 C68 36, 72 28, 70 20 C68 26, 64 34, 62 42" fill="#4A8C2A" opacity="0.55"/>
  
  <!-- Center top leaf -->
  <path d="M60 44 C58 34, 58 26, 60 18 C62 26, 62 34, 60 44" fill="#2D5016" opacity="0.8"/>
  
  <!-- Small accent dots (like seeds/soil organisms) -->
  <circle cx="48" cy="76" r="1.2" fill="#8B6914" opacity="0.4"/>
  <circle cx="72" cy="74" r="1" fill="#8B6914" opacity="0.35"/>
  <circle cx="55" cy="80" r="0.8" fill="#8B6914" opacity="0.3"/>
  <circle cx="67" cy="79" r="1.1" fill="#8B6914" opacity="0.35"/>
</svg>